<?xml version="1.0" ?><!-- Uploaded to: SVG Repo, www.svgrepo.com, Generator: SVG Repo Mixer Tools -->
<svg fill="#000000" width="800px" height="800px" viewBox="0 0 100 100" data-name="Layer 1" id="Layer_1" xmlns="http://www.w3.org/2000/svg"><path d="M69.48,66.5a1.26,1.26,0,0,0-.9.38,17.27,17.27,0,0,1-25,0,1.27,1.27,0,0,0-1-.37c-.06,0-1.47.11-2.9.31a1.25,1.25,0,1,0,.34,2.48c.83-.12,1.66-.2,2.19-.25A19.76,19.76,0,0,0,70,69c6.1.07,10.38,1.5,12.41,4.14a7,7,0,0,1,1.23,5.7,1.23,1.23,0,0,0,1.2,1.58A1.26,1.26,0,0,0,86,79.51a9.61,9.61,0,0,0-1.63-7.85C81.81,68.24,76.78,66.5,69.48,66.5Z"/><ellipse cx="62.83" cy="43.19" rx="2.08" ry="2.14"/><path d="M51.43,43.19a2.08,2.08,0,1,0-2.08,2.14A2.11,2.11,0,0,0,51.43,43.19Z"/><path d="M81.17,33.72a30.46,30.46,0,0,1-4,1.43l-.16,0C74.91,23.23,66.44,15,56.09,15s-18.82,8.2-20.9,20.08a5.79,5.79,0,0,0,0,11.24c2.1,12.72,11,22.17,20.91,22.17S74.9,59.07,77,46.35a5.55,5.55,0,0,0,4.39-5.62A6,6,0,0,0,80,36.86c.71-.25,1.44-.53,2.17-.85a1.25,1.25,0,1,0-1-2.29ZM56.09,17.53c9.15,0,16.64,7.45,18.45,18.2a23.47,23.47,0,0,1-20-5.81,1.26,1.26,0,0,0-1.6-.16l-7,4.79.66-3a1.25,1.25,0,0,0-2.25-1,11.37,11.37,0,0,1-6.46,4.13C39.94,24.49,47.24,17.53,56.09,17.53ZM78.9,40.73a3,3,0,0,1-2.66,3.18h0l-.2,0A1.25,1.25,0,0,0,74.69,45c-1.61,12-9.61,21-18.6,21s-17-9-18.59-21a1.26,1.26,0,0,0-1.24-1.09h-.11a.54.54,0,0,0-.19,0,3,3,0,0,1-2.68-3.19A3,3,0,0,1,36,37.55h0l.21,0a1.21,1.21,0,0,0,.63-.13A16.89,16.89,0,0,0,43.24,35l-.45,2.1a1.25,1.25,0,0,0,.52,1.3,1.27,1.27,0,0,0,.7.21,1.21,1.21,0,0,0,.7-.22l8.8-6a26.74,26.74,0,0,0,23.6,5.36A3.17,3.17,0,0,1,78.9,40.73Z"/><path d="M35.26,75.58l.86-7a1.28,1.28,0,0,0,0-.39,6.67,6.67,0,0,0-6.81-5.38,7.72,7.72,0,0,0-1.74.29l-4.63-7.58a3.64,3.64,0,0,0-6.32,3.59c.29.54.54,1,.75,1.41L17,60.3a3.65,3.65,0,0,0-5.93,2.91,3.6,3.6,0,0,0,1.18,2.62.52.52,0,0,0,.11.1L20,71.46l-.84,1.91a5.19,5.19,0,0,0-.26,3.41,5.53,5.53,0,0,0,.4,1l.48.92a5.12,5.12,0,0,0,3.33,2.62l2.94.72,1.31,2.49a1.26,1.26,0,0,0,1.11.66,1.18,1.18,0,0,0,.58-.14,1.25,1.25,0,0,0,.52-1.69L28,80.4a1.26,1.26,0,0,0-.81-.63l-3.48-.86A2.67,2.67,0,0,1,22,77.57l-.47-.92a2.54,2.54,0,0,1-.2-.52,2.63,2.63,0,0,1,.13-1.75l1.25-2.84A1.26,1.26,0,0,0,22.3,70L13.94,64a1.15,1.15,0,0,1,0-1.62,1.16,1.16,0,0,1,1.57,0l6.89,5.07a2.26,2.26,0,0,0,.22.11,2.73,2.73,0,0,0-.09.62,1.86,1.86,0,0,0,.55,1.31c1.7,1.66,3.79,2.08,6.61,1.32a1.25,1.25,0,0,0-.65-2.41c-2.18.59-3.2.16-3.89-.41a6.42,6.42,0,0,1,1-1.15,4.88,4.88,0,0,1,3.27-1.42,4.18,4.18,0,0,1,4.21,3.18L33,73.58l-.31,2.16a1.23,1.23,0,0,0,.24.93l5.42,7.19a1.25,1.25,0,0,0,1,.5,1.23,1.23,0,0,0,.75-.25,1.27,1.27,0,0,0,.25-1.76ZM24.36,65l-.39.41-3.09-3.75A34.4,34.4,0,0,1,18.82,58a1.13,1.13,0,0,1,.26-1.39,1.08,1.08,0,0,1,.92-.26,1.14,1.14,0,0,1,.79.52l4.5,7.36A7.68,7.68,0,0,0,24.36,65Z"/><path d="M28.28,21.54a1.27,1.27,0,0,0-1.13-.34l-.23.07a1.55,1.55,0,0,0-.22.12,1.39,1.39,0,0,0-.19.15,1.3,1.3,0,0,0-.37.89,1.25,1.25,0,0,0,.78,1.15,1.12,1.12,0,0,0,.48.1,1.23,1.23,0,0,0,.88-.37,1.25,1.25,0,0,0,.36-.88A1.27,1.27,0,0,0,28.28,21.54Z"/><path d="M27.15,26.75l-.23.07a1.25,1.25,0,0,0-.41.28,1.25,1.25,0,0,0,.89,2.13,1.23,1.23,0,0,0,.88-.37,1.21,1.21,0,0,0,.36-.88,1.25,1.25,0,0,0-1.49-1.23Z"/><path d="M30.17,26.46a1.26,1.26,0,0,0,.88-.37,1.24,1.24,0,0,0,.37-.89,1.22,1.22,0,0,0-.37-.88,1.27,1.27,0,0,0-1.76,0,1.22,1.22,0,0,0-.37.88,1.24,1.24,0,0,0,.37.89A1.26,1.26,0,0,0,30.17,26.46Z"/><path d="M24.38,24a1.09,1.09,0,0,0-.24.07l-.21.11-.19.16a1.22,1.22,0,0,0-.37.88,1.24,1.24,0,0,0,.37.89,1.09,1.09,0,0,0,.4.27,1.33,1.33,0,0,0,.48.1,1.26,1.26,0,0,0,.88-.37,1.24,1.24,0,0,0,.37-.89,1.22,1.22,0,0,0-.37-.88A1.25,1.25,0,0,0,24.38,24Z"/><path d="M82.56,55.17a.9.9,0,0,0-.19-.15.94.94,0,0,0-.22-.12l-.23-.07a1.35,1.35,0,0,0-.49,0l-.23.07A.94.94,0,0,0,81,55a.9.9,0,0,0-.19.15,1.46,1.46,0,0,0-.16.19,1.51,1.51,0,0,0-.11.22.88.88,0,0,0-.07.23,1.07,1.07,0,0,0,0,.25,1.28,1.28,0,0,0,.1.47,1.13,1.13,0,0,0,.27.41,1.22,1.22,0,0,0,.41.27,1.29,1.29,0,0,0,.48.1,1.23,1.23,0,0,0,.88-.37,1.24,1.24,0,0,0,0-1.77Z"/><path d="M82.71,60.91a1,1,0,0,0-.34-.34.94.94,0,0,0-.22-.12l-.23-.07a1.35,1.35,0,0,0-.49,0l-.23.07a.94.94,0,0,0-.22.12.9.9,0,0,0-.19.15,1.46,1.46,0,0,0-.16.19,1.51,1.51,0,0,0-.11.22.88.88,0,0,0-.07.23,1,1,0,0,0,0,.25,1.28,1.28,0,0,0,.1.47,1.22,1.22,0,0,0,.27.41,1.24,1.24,0,0,0,1.77,0,1.13,1.13,0,0,0,.27-.41,1.28,1.28,0,0,0,.1-.47,1,1,0,0,0,0-.25,1.55,1.55,0,0,0-.07-.23A.94.94,0,0,0,82.71,60.91Z"/><path d="M84.45,60.08a1.22,1.22,0,0,0,.88-.37,1.09,1.09,0,0,0,.27-.4,1.12,1.12,0,0,0,.1-.48,1.22,1.22,0,0,0-.37-.88,1.27,1.27,0,0,0-1.76,0,1.22,1.22,0,0,0-.37.88,1.28,1.28,0,0,0,.09.48,1.26,1.26,0,0,0,.28.4A1.2,1.2,0,0,0,84.45,60.08Z"/><path d="M79.38,57.68l-.23-.08A1.26,1.26,0,0,0,78,58a1.22,1.22,0,0,0-.37.88,1.28,1.28,0,0,0,.09.48,1.26,1.26,0,0,0,.28.4,1.23,1.23,0,0,0,1.76,0,1.26,1.26,0,0,0,.28-.4,1.28,1.28,0,0,0,.09-.48,1.22,1.22,0,0,0-.37-.88,1,1,0,0,0-.19-.16Z"/><path d="M61.53,52.56l-.19.2A7.38,7.38,0,0,1,56,55.05h0a7.39,7.39,0,0,1-5.34-2.29,1.25,1.25,0,1,0-1.8,1.74,9.89,9.89,0,0,0,7.14,3h0a9.88,9.88,0,0,0,7.13-3l.2-.2a1.25,1.25,0,0,0-1.8-1.74Z"/></svg>